<mxfile host="Electron" modified="2024-05-13T15:12:46.226Z" agent="Mozilla/5.0 (Windows NT 10.0; Win64; x64) AppleWebKit/537.36 (KHTML, like Gecko) draw.io/24.2.5 Chrome/120.0.6099.109 Electron/28.1.0 Safari/537.36" etag="yZCD9esiINys8E8cpU9S" version="24.2.5" type="device">
  <diagram name="Page-1" id="vwXqPVWlfqSLFieRHOnW">
    <mxGraphModel dx="600" dy="359" grid="0" gridSize="10" guides="1" tooltips="1" connect="1" arrows="1" fold="1" page="1" pageScale="1" pageWidth="827" pageHeight="1169" math="0" shadow="0">
      <root>
        <mxCell id="0" />
        <mxCell id="1" parent="0" />
        <mxCell id="6y3zMcKNCOCIkvOTSaAC-1" value=":System" style="shape=umlLifeline;perimeter=lifelinePerimeter;whiteSpace=wrap;html=1;container=1;dropTarget=0;collapsible=0;recursiveResize=0;outlineConnect=0;portConstraint=eastwest;newEdgeStyle={&quot;curved&quot;:0,&quot;rounded&quot;:0};" parent="1" vertex="1">
          <mxGeometry x="511" y="128" width="100" height="350" as="geometry" />
        </mxCell>
        <mxCell id="6y3zMcKNCOCIkvOTSaAC-2" value="" style="shape=umlLifeline;perimeter=lifelinePerimeter;whiteSpace=wrap;html=1;container=1;dropTarget=0;collapsible=0;recursiveResize=0;outlineConnect=0;portConstraint=eastwest;newEdgeStyle={&quot;curved&quot;:0,&quot;rounded&quot;:0};participant=umlActor;" parent="1" vertex="1">
          <mxGeometry x="243" y="121" width="20" height="358" as="geometry" />
        </mxCell>
        <mxCell id="6y3zMcKNCOCIkvOTSaAC-3" value="&lt;b&gt;Make new order ()&lt;/b&gt;" style="html=1;verticalAlign=bottom;endArrow=block;curved=0;rounded=0;strokeWidth=2;" parent="1" edge="1">
          <mxGeometry width="80" relative="1" as="geometry">
            <mxPoint x="252.83333333333337" y="192" as="sourcePoint" />
            <mxPoint x="560.5" y="192" as="targetPoint" />
            <Array as="points">
              <mxPoint x="284.5" y="192" />
              <mxPoint x="436.5" y="192" />
            </Array>
          </mxGeometry>
        </mxCell>
        <mxCell id="6y3zMcKNCOCIkvOTSaAC-4" value="&lt;b&gt;Enter product (product id, quantity)&lt;/b&gt;" style="html=1;verticalAlign=bottom;endArrow=block;curved=0;rounded=0;strokeWidth=2;" parent="1" edge="1">
          <mxGeometry width="80" relative="1" as="geometry">
            <mxPoint x="253" y="250" as="sourcePoint" />
            <mxPoint x="561" y="250" as="targetPoint" />
            <Array as="points">
              <mxPoint x="284.5" y="250" />
              <mxPoint x="436.5" y="250" />
            </Array>
          </mxGeometry>
        </mxCell>
        <mxCell id="6y3zMcKNCOCIkvOTSaAC-5" value="" style="html=1;labelBackgroundColor=#ffffff;startArrow=none;startFill=0;startSize=6;endArrow=classic;endFill=1;endSize=6;jettySize=auto;orthogonalLoop=1;strokeWidth=2;dashed=1;fontSize=14;rounded=0;" parent="1" edge="1">
          <mxGeometry width="60" height="60" relative="1" as="geometry">
            <mxPoint x="560.5" y="307" as="sourcePoint" />
            <mxPoint x="252.83333333333337" y="307" as="targetPoint" />
          </mxGeometry>
        </mxCell>
        <mxCell id="6y3zMcKNCOCIkvOTSaAC-6" value="&lt;b&gt;Description (price, subtotal)&lt;/b&gt;" style="edgeLabel;html=1;align=center;verticalAlign=middle;resizable=0;points=[];" parent="6y3zMcKNCOCIkvOTSaAC-5" vertex="1" connectable="0">
          <mxGeometry x="0.093" y="-1" relative="1" as="geometry">
            <mxPoint x="13" y="-8" as="offset" />
          </mxGeometry>
        </mxCell>
        <mxCell id="6y3zMcKNCOCIkvOTSaAC-10" value="" style="html=1;labelBackgroundColor=#ffffff;startArrow=none;startFill=0;startSize=6;endArrow=classic;endFill=1;endSize=6;jettySize=auto;orthogonalLoop=1;strokeWidth=2;dashed=1;fontSize=14;rounded=0;" parent="1" edge="1">
          <mxGeometry width="60" height="60" relative="1" as="geometry">
            <mxPoint x="560" y="362" as="sourcePoint" />
            <mxPoint x="252" y="362" as="targetPoint" />
          </mxGeometry>
        </mxCell>
        <mxCell id="6y3zMcKNCOCIkvOTSaAC-11" value="&lt;b&gt;Total price ()&lt;/b&gt;" style="edgeLabel;html=1;align=center;verticalAlign=middle;resizable=0;points=[];" parent="6y3zMcKNCOCIkvOTSaAC-10" vertex="1" connectable="0">
          <mxGeometry x="0.093" y="-1" relative="1" as="geometry">
            <mxPoint x="13" y="-8" as="offset" />
          </mxGeometry>
        </mxCell>
        <mxCell id="6y3zMcKNCOCIkvOTSaAC-12" value="&lt;b&gt;Make payment ()&lt;/b&gt;" style="html=1;verticalAlign=bottom;endArrow=block;curved=0;rounded=0;strokeWidth=2;" parent="1" edge="1">
          <mxGeometry width="80" relative="1" as="geometry">
            <mxPoint x="253" y="414" as="sourcePoint" />
            <mxPoint x="561" y="414" as="targetPoint" />
            <Array as="points">
              <mxPoint x="284.5" y="414" />
              <mxPoint x="436.5" y="414" />
            </Array>
          </mxGeometry>
        </mxCell>
        <mxCell id="6y3zMcKNCOCIkvOTSaAC-13" value="" style="html=1;labelBackgroundColor=#ffffff;startArrow=none;startFill=0;startSize=6;endArrow=classic;endFill=1;endSize=6;jettySize=auto;orthogonalLoop=1;strokeWidth=2;dashed=1;fontSize=14;rounded=0;" parent="1" edge="1">
          <mxGeometry width="60" height="60" relative="1" as="geometry">
            <mxPoint x="560.67" y="461" as="sourcePoint" />
            <mxPoint x="253.00333333333336" y="461" as="targetPoint" />
          </mxGeometry>
        </mxCell>
        <mxCell id="6y3zMcKNCOCIkvOTSaAC-14" value="&lt;b&gt;End order (change, receipt)&lt;/b&gt;" style="edgeLabel;html=1;align=center;verticalAlign=middle;resizable=0;points=[];" parent="6y3zMcKNCOCIkvOTSaAC-13" vertex="1" connectable="0">
          <mxGeometry x="0.093" y="-1" relative="1" as="geometry">
            <mxPoint x="13" y="-9" as="offset" />
          </mxGeometry>
        </mxCell>
        <mxCell id="6y3zMcKNCOCIkvOTSaAC-15" value="&lt;b&gt;Loop&lt;/b&gt;" style="shape=umlFrame;whiteSpace=wrap;html=1;pointerEvents=0;" parent="1" vertex="1">
          <mxGeometry x="185" y="217" width="419" height="116" as="geometry" />
        </mxCell>
        <mxCell id="6y3zMcKNCOCIkvOTSaAC-18" value="&lt;b&gt;&lt;font style=&quot;font-size: 10px;&quot;&gt;More items&lt;/font&gt;&lt;/b&gt;" style="text;html=1;align=center;verticalAlign=middle;resizable=0;points=[];autosize=1;strokeColor=none;fillColor=none;" parent="1" vertex="1">
          <mxGeometry x="185" y="262" width="71" height="26" as="geometry" />
        </mxCell>
      </root>
    </mxGraphModel>
  </diagram>
</mxfile>
